<?xml version="1.0" standalone="no"?>
<!DOCTYPE svg PUBLIC "-//W3C//DTD SVG 20010904//EN"
 "http://www.w3.org/TR/2001/REC-SVG-20010904/DTD/svg10.dtd">
<svg version="1.0" xmlns="http://www.w3.org/2000/svg"
 width="500.000000pt" height="500.000000pt" viewBox="0 0 500.000000 500.000000"
 preserveAspectRatio="xMidYMid meet">

<g transform="translate(0.000000,500.000000) scale(0.100000,-0.100000)"
fill="#ffff" stroke="none">
<path d="M2304 3950 c-259 -27 -528 -128 -712 -265 -84 -63 -202 -174 -202
-190 0 -16 110 -155 124 -155 5 0 24 13 41 29 109 102 348 240 505 290 205 66
446 87 630 57 215 -36 451 -135 646 -272 58 -41 109 -74 113 -74 3 0 37 31 74
68 l67 68 -32 31 c-71 67 -238 177 -362 238 -210 102 -387 151 -632 175 -119
11 -154 11 -260 0z"/>
<path d="M2269 3525 c-214 -43 -392 -132 -537 -269 l-73 -70 72 -72 73 -73 55
52 c75 71 134 110 246 163 145 69 225 87 390 88 123 0 152 -3 238 -27 176 -48
294 -113 397 -218 l57 -58 74 75 74 75 -45 41 c-252 226 -705 356 -1021 293z"/>
<path d="M1556 3069 c-142 -156 -235 -433 -238 -704 -1 -188 44 -365 144 -556
66 -128 159 -241 301 -367 64 -57 203 -194 308 -305 106 -111 244 -255 308
-320 l115 -118 135 138 c75 76 287 291 471 478 359 363 402 416 471 574 94
218 123 424 90 636 -17 106 -82 304 -129 388 -43 78 -132 196 -148 197 -6 0
-41 -27 -77 -61 l-67 -61 47 -56 c58 -72 146 -252 173 -358 62 -240 40 -441
-72 -655 -62 -119 -148 -224 -258 -312 -169 -136 -460 -257 -617 -257 -460 0
-861 326 -959 780 -58 270 -3 562 150 789 l37 54 -68 69 c-37 37 -70 68 -74
68 -4 0 -23 -18 -43 -41z"/>
<path d="M2425 3100 c-120 -14 -238 -60 -357 -142 -32 -21 -58 -40 -58 -41 0
-1 34 -33 75 -70 l75 -68 33 25 c50 38 156 85 222 97 118 22 259 -11 372 -87
36 -24 71 -44 77 -44 14 0 153 126 146 133 -31 29 -142 101 -201 129 -121 60
-255 83 -384 68z"/>
<path d="M2254 2566 c-48 -21 -115 -86 -135 -131 -16 -35 -19 -69 -19 -257 l0
-218 44 0 45 0 3 208 c3 233 10 257 78 293 63 34 127 21 180 -36 25 -26 25
-29 30 -243 l5 -217 45 0 45 0 5 210 c6 233 9 246 73 285 39 24 88 25 134 4
64 -31 67 -44 73 -284 l5 -215 48 -3 47 -3 0 218 c0 215 -1 220 -25 270 -72
144 -261 177 -377 66 l-28 -27 -27 27 c-64 60 -177 84 -249 53z"/>
<path d="M2104 1753 l-76 -67 38 -33 c57 -48 190 -120 264 -144 91 -30 251
-36 353 -15 43 8 111 31 151 50 78 36 196 111 196 125 0 5 -9 15 -19 22 -11 8
-44 35 -74 62 l-55 47 -51 -34 c-96 -65 -151 -81 -286 -81 -139 0 -192 16
-301 91 l-63 44 -77 -67z"/>
</g>
</svg>
